<svg width="12" height="12" viewBox="0 0 12 12" fill="none" xmlns="http://www.w3.org/2000/svg">
<rect width="12" height="12" fill="#141414"/>
<path d="M3 11C2.725 11 2.48958 10.9021 2.29375 10.7063C2.09792 10.5104 2 10.275 2 10V2C2 1.725 2.09792 1.48958 2.29375 1.29375C2.48958 1.09792 2.725 1 3 1H9C9.275 1 9.51042 1.09792 9.70625 1.29375C9.90208 1.48958 10 1.725 10 2V10C10 10.275 9.90208 10.5104 9.70625 10.7063C9.51042 10.9021 9.275 11 9 11H3ZM3 10H9V2H8V5.0625C8 5.1625 7.95833 5.23542 7.875 5.28125C7.79167 5.32708 7.70833 5.325 7.625 5.275L7.0125 4.9C6.92917 4.85 6.84375 4.825 6.75625 4.825C6.66875 4.825 6.58333 4.85 6.5 4.9L5.8875 5.275C5.80417 5.325 5.71875 5.32708 5.63125 5.28125C5.54375 5.23542 5.5 5.1625 5.5 5.0625V2H3V10Z" fill="url(#paint0_linear_39_4)"/>
<defs>
<linearGradient id="paint0_linear_39_4" x1="6" y1="1" x2="6" y2="11" gradientUnits="userSpaceOnUse">
<stop stop-color="#FFA801"/>
<stop offset="1" stop-color="#FFDD9B"/>
</linearGradient>
</defs>
</svg>
