<svg width="12" height="12" viewBox="0 0 12 12" fill="none" xmlns="http://www.w3.org/2000/svg">
<path d="M6 11C5.31667 11 4.67083 10.8688 4.0625 10.6063C3.45417 10.3438 2.92292 9.98542 2.46875 9.53125C2.01458 9.07708 1.65625 8.54583 1.39375 7.9375C1.13125 7.32917 1 6.68333 1 6C1 5.30833 1.13125 4.66042 1.39375 4.05625C1.65625 3.45208 2.01458 2.92292 2.46875 2.46875C2.92292 2.01458 3.45417 1.65625 4.0625 1.39375C4.67083 1.13125 5.31667 1 6 1C6.69167 1 7.33958 1.13125 7.94375 1.39375C8.54792 1.65625 9.07708 2.01458 9.53125 2.46875C9.98542 2.92292 10.3438 3.45208 10.6063 4.05625C10.8688 4.66042 11 5.30833 11 6C11 6.68333 10.8688 7.32917 10.6063 7.9375C10.3438 8.54583 9.98542 9.07708 9.53125 9.53125C9.07708 9.98542 8.54792 10.3438 7.94375 10.6063C7.33958 10.8688 6.69167 11 6 11ZM6 9.975C6.21667 9.675 6.40417 9.3625 6.5625 9.0375C6.72083 8.7125 6.85 8.36667 6.95 8H5.05C5.15 8.36667 5.27917 8.7125 5.4375 9.0375C5.59583 9.3625 5.78333 9.675 6 9.975ZM4.7 9.775C4.55 9.5 4.41875 9.21458 4.30625 8.91875C4.19375 8.62292 4.1 8.31667 4.025 8H2.55C2.79167 8.41667 3.09375 8.77917 3.45625 9.0875C3.81875 9.39583 4.23333 9.625 4.7 9.775ZM7.3 9.775C7.76667 9.625 8.18125 9.39583 8.54375 9.0875C8.90625 8.77917 9.20833 8.41667 9.45 8H7.975C7.9 8.31667 7.80625 8.62292 7.69375 8.91875C7.58125 9.21458 7.45 9.5 7.3 9.775ZM2.125 7H3.825C3.8 6.83333 3.78125 6.66875 3.76875 6.50625C3.75625 6.34375 3.75 6.175 3.75 6C3.75 5.825 3.75625 5.65625 3.76875 5.49375C3.78125 5.33125 3.8 5.16667 3.825 5H2.125C2.08333 5.16667 2.05208 5.33125 2.03125 5.49375C2.01042 5.65625 2 5.825 2 6C2 6.175 2.01042 6.34375 2.03125 6.50625C2.05208 6.66875 2.08333 6.83333 2.125 7ZM4.825 7H7.175C7.2 6.83333 7.21875 6.66875 7.23125 6.50625C7.24375 6.34375 7.25 6.175 7.25 6C7.25 5.825 7.24375 5.65625 7.23125 5.49375C7.21875 5.33125 7.2 5.16667 7.175 5H4.825C4.8 5.16667 4.78125 5.33125 4.76875 5.49375C4.75625 5.65625 4.75 5.825 4.75 6C4.75 6.175 4.75625 6.34375 4.76875 6.50625C4.78125 6.66875 4.8 6.83333 4.825 7ZM8.175 7H9.875C9.91667 6.83333 9.94792 6.66875 9.96875 6.50625C9.98958 6.34375 10 6.175 10 6C10 5.825 9.98958 5.65625 9.96875 5.49375C9.94792 5.33125 9.91667 5.16667 9.875 5H8.175C8.2 5.16667 8.21875 5.33125 8.23125 5.49375C8.24375 5.65625 8.25 5.825 8.25 6C8.25 6.175 8.24375 6.34375 8.23125 6.50625C8.21875 6.66875 8.2 6.83333 8.175 7ZM7.975 4H9.45C9.20833 3.58333 8.90625 3.22083 8.54375 2.9125C8.18125 2.60417 7.76667 2.375 7.3 2.225C7.45 2.5 7.58125 2.78542 7.69375 3.08125C7.80625 3.37708 7.9 3.68333 7.975 4ZM5.05 4H6.95C6.85 3.63333 6.72083 3.2875 6.5625 2.9625C6.40417 2.6375 6.21667 2.325 6 2.025C5.78333 2.325 5.59583 2.6375 5.4375 2.9625C5.27917 3.2875 5.15 3.63333 5.05 4ZM2.55 4H4.025C4.1 3.68333 4.19375 3.37708 4.30625 3.08125C4.41875 2.78542 4.55 2.5 4.7 2.225C4.23333 2.375 3.81875 2.60417 3.45625 2.9125C3.09375 3.22083 2.79167 3.58333 2.55 4Z" fill="url(#paint0_linear_39_2)"/>
<defs>
<linearGradient id="paint0_linear_39_2" x1="6" y1="1" x2="6" y2="11" gradientUnits="userSpaceOnUse">
<stop stop-color="#FFA801"/>
<stop offset="1" stop-color="#FFDD9B"/>
</linearGradient>
</defs>
</svg>
