<svg width="137" height="38" viewBox="0 0 137 38" fill="none" xmlns="http://www.w3.org/2000/svg">
<path d="M0.0399933 37V5.704H20.824V11.656H7.09599V18.904H18.808V24.856H7.09599V37H0.0399933Z" fill="#141414"/>
<path d="M34.5332 37.576C32.9332 37.576 31.5412 37.256 30.3572 36.616C29.2052 35.976 28.3092 35.112 27.6692 34.024C27.0292 32.936 26.7092 31.72 26.7092 30.376C26.7092 27.72 27.9092 25.688 30.3092 24.28C32.7412 22.872 36.7732 22.008 42.4052 21.688C42.3092 20.952 42.0692 20.328 41.6852 19.816C41.3012 19.304 40.7412 18.92 40.0052 18.664C39.3012 18.376 38.4052 18.232 37.3172 18.232C36.5492 18.232 35.7812 18.328 35.0132 18.52C34.2452 18.68 33.4452 18.936 32.6132 19.288C31.8132 19.608 30.9652 19.992 30.0692 20.44L27.5732 15.832C28.6612 15.192 29.7972 14.632 30.9812 14.152C32.1972 13.672 33.4452 13.304 34.7252 13.048C36.0372 12.76 37.3652 12.616 38.7092 12.616C40.9492 12.616 42.8692 13.016 44.4692 13.816C46.0692 14.584 47.3012 15.768 48.1652 17.368C49.0292 18.936 49.4612 20.936 49.4612 23.368V37H43.7012L43.1732 34.312H42.9812C41.7972 35.208 40.4852 35.976 39.0452 36.616C37.6052 37.256 36.1012 37.576 34.5332 37.576ZM36.7892 32.104C37.8452 32.104 38.8372 31.896 39.7652 31.48C40.6932 31.032 41.5732 30.488 42.4052 29.848V25.912C40.0692 26.04 38.2452 26.28 36.9332 26.632C35.6532 26.984 34.7572 27.432 34.2452 27.976C33.7332 28.52 33.4772 29.144 33.4772 29.848C33.4772 30.328 33.6052 30.744 33.8612 31.096C34.1492 31.448 34.5332 31.704 35.0132 31.864C35.5252 32.024 36.1172 32.104 36.7892 32.104Z" fill="#141414"/>
<path d="M68.7865 37.576C67.6985 37.576 66.5785 37.304 65.4265 36.76C64.3065 36.216 63.2665 35.432 62.3065 34.408H62.1145L61.5385 37H56.0185V3.352H63.0745V11.608L62.8345 15.352H62.9785C63.9065 14.488 64.9305 13.816 66.0505 13.336C67.2025 12.856 68.3545 12.616 69.5065 12.616C71.5225 12.616 73.2345 13.112 74.6425 14.104C76.0825 15.096 77.1865 16.504 77.9545 18.328C78.7225 20.12 79.1065 22.232 79.1065 24.664C79.1065 27.384 78.6105 29.72 77.6185 31.672C76.6585 33.592 75.3945 35.064 73.8265 36.088C72.2585 37.08 70.5785 37.576 68.7865 37.576ZM67.2025 31.816C68.0665 31.816 68.8505 31.576 69.5545 31.096C70.2585 30.616 70.8185 29.864 71.2345 28.84C71.6505 27.784 71.8585 26.44 71.8585 24.808C71.8585 23.368 71.6985 22.184 71.3785 21.256C71.0585 20.296 70.5785 19.576 69.9385 19.096C69.3305 18.616 68.5145 18.376 67.4905 18.376C66.7225 18.376 65.9705 18.552 65.2345 18.904C64.5305 19.224 63.8105 19.784 63.0745 20.584V30.232C63.7465 30.776 64.4345 31.176 65.1385 31.432C65.8745 31.688 66.5625 31.816 67.2025 31.816Z" fill="#141414"/>
<path d="M94.6877 37V18.712H85.0877V13.192H101.744V37H94.6877ZM97.9037 9.448C96.5597 9.448 95.4397 9.064 94.5437 8.296C93.6477 7.496 93.1997 6.456 93.1997 5.176C93.1997 3.864 93.6477 2.808 94.5437 2.008C95.4397 1.176 96.5597 0.759998 97.9037 0.759998C99.2797 0.759998 100.4 1.176 101.264 2.008C102.16 2.808 102.608 3.864 102.608 5.176C102.608 6.456 102.16 7.496 101.264 8.296C100.4 9.064 99.2797 9.448 97.9037 9.448Z" fill="#141414"/>
<path d="M124.525 37.576C122.445 37.576 120.477 37.096 118.621 36.136C116.765 35.144 115.261 33.72 114.109 31.864C112.957 29.976 112.381 27.72 112.381 25.096C112.381 22.472 112.957 20.232 114.109 18.376C115.261 16.488 116.765 15.064 118.621 14.104C120.477 13.112 122.445 12.616 124.525 12.616C126.605 12.616 128.573 13.112 130.429 14.104C132.285 15.064 133.789 16.488 134.941 18.376C136.093 20.232 136.669 22.472 136.669 25.096C136.669 27.72 136.093 29.976 134.941 31.864C133.789 33.72 132.285 35.144 130.429 36.136C128.573 37.096 126.605 37.576 124.525 37.576ZM124.525 31.864C125.613 31.864 126.509 31.592 127.213 31.048C127.949 30.504 128.493 29.72 128.845 28.696C129.229 27.672 129.421 26.472 129.421 25.096C129.421 23.72 129.229 22.52 128.845 21.496C128.493 20.472 127.949 19.688 127.213 19.144C126.509 18.6 125.613 18.328 124.525 18.328C123.437 18.328 122.525 18.6 121.789 19.144C121.085 19.688 120.541 20.472 120.157 21.496C119.805 22.52 119.629 23.72 119.629 25.096C119.629 26.472 119.805 27.672 120.157 28.696C120.541 29.72 121.085 30.504 121.789 31.048C122.525 31.592 123.437 31.864 124.525 31.864Z" fill="#141414"/>
</svg>
